<svg width="213" height="48" viewBox="0 0 213 48" fill="none" xmlns="http://www.w3.org/2000/svg">
<path d="M15.968 31.032H7.584L6.24 35H0.512L8.64 12.536H14.976L23.104 35H17.312L15.968 31.032ZM14.56 26.808L11.776 18.584L9.024 26.808H14.56ZM31.0498 30.776H38.2178V35H25.5778V12.536H31.0498V30.776ZM57.9478 19.768C57.9478 21.0693 57.6491 22.264 57.0518 23.352C56.4544 24.4187 55.5371 25.2827 54.2998 25.944C53.0624 26.6053 51.5264 26.936 49.6918 26.936H46.2998V35H40.8278V12.536H49.6918C51.4838 12.536 52.9984 12.8453 54.2358 13.464C55.4731 14.0827 56.4011 14.936 57.0198 16.024C57.6384 17.112 57.9478 18.36 57.9478 19.768ZM49.2758 22.584C50.3211 22.584 51.0998 22.3387 51.6118 21.848C52.1238 21.3573 52.3798 20.664 52.3798 19.768C52.3798 18.872 52.1238 18.1787 51.6118 17.688C51.0998 17.1973 50.3211 16.952 49.2758 16.952H46.2998V22.584H49.2758ZM80.2525 12.536V35H74.7805V25.752H66.2685V35H60.7965V12.536H66.2685V21.336H74.7805V12.536H80.2525ZM98.1868 31.032H89.8028L88.4588 35H82.7308L90.8588 12.536H97.1948L105.323 35H99.5308L98.1868 31.032ZM96.7788 26.808L93.9948 18.584L91.2428 26.808H96.7788ZM106.868 23.736C106.868 21.5173 107.349 19.544 108.309 17.816C109.269 16.0667 110.602 14.712 112.309 13.752C114.037 12.7707 115.989 12.28 118.165 12.28C120.831 12.28 123.114 12.984 125.013 14.392C126.911 15.8 128.181 17.72 128.821 20.152H122.805C122.357 19.2133 121.717 18.4987 120.885 18.008C120.074 17.5173 119.146 17.272 118.101 17.272C116.415 17.272 115.05 17.8587 114.005 19.032C112.959 20.2053 112.437 21.7733 112.437 23.736C112.437 25.6987 112.959 27.2667 114.005 28.44C115.05 29.6133 116.415 30.2 118.101 30.2C119.146 30.2 120.074 29.9547 120.885 29.464C121.717 28.9733 122.357 28.2587 122.805 27.32H128.821C128.181 29.752 126.911 31.672 125.013 33.08C123.114 34.4667 120.831 35.16 118.165 35.16C115.989 35.16 114.037 34.68 112.309 33.72C110.602 32.7387 109.269 31.384 108.309 29.656C107.349 27.928 106.868 25.9547 106.868 23.736ZM142.796 35.224C140.684 35.224 138.742 34.7333 136.972 33.752C135.222 32.7707 133.825 31.4053 132.78 29.656C131.755 27.8853 131.243 25.9013 131.243 23.704C131.243 21.5067 131.755 19.5333 132.78 17.784C133.825 16.0347 135.222 14.6693 136.972 13.688C138.742 12.7067 140.684 12.216 142.796 12.216C144.908 12.216 146.838 12.7067 148.588 13.688C150.358 14.6693 151.745 16.0347 152.748 17.784C153.772 19.5333 154.284 21.5067 154.284 23.704C154.284 25.9013 153.772 27.8853 152.748 29.656C151.724 31.4053 150.337 32.7707 148.588 33.752C146.838 34.7333 144.908 35.224 142.796 35.224ZM142.796 30.232C144.588 30.232 146.017 29.6347 147.083 28.44C148.172 27.2453 148.716 25.6667 148.716 23.704C148.716 21.72 148.172 20.1413 147.083 18.968C146.017 17.7733 144.588 17.176 142.796 17.176C140.982 17.176 139.532 17.7627 138.444 18.936C137.377 20.1093 136.844 21.6987 136.844 23.704C136.844 25.688 137.377 27.2773 138.444 28.472C139.532 29.6453 140.982 30.232 142.796 30.232ZM165.744 12.536C168.112 12.536 170.181 13.0053 171.952 13.944C173.722 14.8827 175.088 16.2053 176.048 17.912C177.029 19.5973 177.52 21.5493 177.52 23.768C177.52 25.9653 177.029 27.9173 176.048 29.624C175.088 31.3307 173.712 32.6533 171.92 33.592C170.149 34.5307 168.09 35 165.744 35H157.328V12.536H165.744ZM165.392 30.264C167.461 30.264 169.072 29.6987 170.224 28.568C171.376 27.4373 171.952 25.8373 171.952 23.768C171.952 21.6987 171.376 20.088 170.224 18.936C169.072 17.784 167.461 17.208 165.392 17.208H162.8V30.264H165.392ZM186.05 16.92V21.464H193.378V25.688H186.05V30.616H194.338V35H180.578V12.536H194.338V16.92H186.05Z" fill="#E5E5E5"/>
<ellipse cx="208.824" cy="16" rx="4.17647" ry="4" fill="#F8E7A1"/>
</svg>
